<mxfile modified="2022-05-03T08:27:23.588Z" host="app.diagrams.net" agent="5.0 (Windows NT 10.0; Win64; x64) AppleWebKit/537.36 (KHTML, like Gecko) Chrome/100.0.4896.127 Safari/537.36 Edg/100.0.1185.50" etag="Pr6V4I6cBvGjpIID6GFN" compressed="false" version="17.5.0" type="google">
  <diagram id="5MvUfZKvCt6vNQkwG7TB" name="Information Validation Types">
    <mxGraphModel grid="1" page="1" gridSize="10" guides="1" tooltips="1" connect="1" arrows="1" fold="1" pageScale="1" pageWidth="827" pageHeight="1169" math="0" shadow="0">
      <root>
        <mxCell id="2Nln8GVLDwGdub9k7DS5-0" />
        <mxCell id="2Nln8GVLDwGdub9k7DS5-1" parent="2Nln8GVLDwGdub9k7DS5-0" />
        <mxCell id="2Nln8GVLDwGdub9k7DS5-2" value="Individual Attribute" style="rounded=0;whiteSpace=wrap;html=1;align=center;fillColor=#f5f5f5;strokeColor=#666666;fontColor=#333333;" vertex="1" parent="2Nln8GVLDwGdub9k7DS5-1">
          <mxGeometry x="120" y="230" width="80" height="40" as="geometry" />
        </mxCell>
        <mxCell id="2Nln8GVLDwGdub9k7DS5-3" value="Whole&lt;br&gt;Message&lt;br&gt;Object&amp;nbsp;" style="rounded=0;whiteSpace=wrap;html=1;align=center;fillColor=#f5f5f5;strokeColor=#666666;fontColor=#333333;" vertex="1" parent="2Nln8GVLDwGdub9k7DS5-1">
          <mxGeometry x="220" y="230" width="80" height="40" as="geometry" />
        </mxCell>
        <mxCell id="2Nln8GVLDwGdub9k7DS5-4" value="Required" style="rounded=0;whiteSpace=wrap;html=1;align=center;" vertex="1" parent="2Nln8GVLDwGdub9k7DS5-1">
          <mxGeometry x="120" y="290" width="80" height="30" as="geometry" />
        </mxCell>
        <mxCell id="2Nln8GVLDwGdub9k7DS5-5" value="Min/Max Length" style="rounded=0;whiteSpace=wrap;html=1;align=center;" vertex="1" parent="2Nln8GVLDwGdub9k7DS5-1">
          <mxGeometry x="120" y="330" width="80" height="30" as="geometry" />
        </mxCell>
        <mxCell id="2Nln8GVLDwGdub9k7DS5-6" value="&lt;span&gt;Range&lt;/span&gt;" style="rounded=0;whiteSpace=wrap;html=1;align=center;fontStyle=0" vertex="1" parent="2Nln8GVLDwGdub9k7DS5-1">
          <mxGeometry x="120" y="370" width="80" height="30" as="geometry" />
        </mxCell>
        <mxCell id="2Nln8GVLDwGdub9k7DS5-7" value="Pattern" style="rounded=0;whiteSpace=wrap;html=1;align=center;" vertex="1" parent="2Nln8GVLDwGdub9k7DS5-1">
          <mxGeometry x="120" y="450" width="80" height="30" as="geometry" />
        </mxCell>
        <mxCell id="2Nln8GVLDwGdub9k7DS5-8" value="Set Member" style="rounded=0;whiteSpace=wrap;html=1;align=center;" vertex="1" parent="2Nln8GVLDwGdub9k7DS5-1">
          <mxGeometry x="120" y="410" width="80" height="30" as="geometry" />
        </mxCell>
        <mxCell id="2Nln8GVLDwGdub9k7DS5-9" value="Client&lt;br&gt;Context&lt;br&gt;Service" style="rounded=0;whiteSpace=wrap;html=1;align=center;fillColor=#f5f5f5;strokeColor=#666666;fontColor=#333333;textOpacity=50;" vertex="1" parent="2Nln8GVLDwGdub9k7DS5-1">
          <mxGeometry x="320" y="230" width="80" height="40" as="geometry" />
        </mxCell>
        <mxCell id="2Nln8GVLDwGdub9k7DS5-10" value="Role" style="rounded=0;whiteSpace=wrap;html=1;align=center;textOpacity=50;" vertex="1" parent="2Nln8GVLDwGdub9k7DS5-1">
          <mxGeometry x="420" y="290" width="80" height="30" as="geometry" />
        </mxCell>
        <mxCell id="2Nln8GVLDwGdub9k7DS5-11" value="Biz Servicing Hours" style="rounded=0;whiteSpace=wrap;html=1;align=center;textOpacity=50;" vertex="1" parent="2Nln8GVLDwGdub9k7DS5-1">
          <mxGeometry x="320" y="290" width="80" height="30" as="geometry" />
        </mxCell>
        <mxCell id="2Nln8GVLDwGdub9k7DS5-12" value="Biz Servicing&lt;br&gt;Location" style="rounded=0;whiteSpace=wrap;html=1;align=center;textOpacity=50;" vertex="1" parent="2Nln8GVLDwGdub9k7DS5-1">
          <mxGeometry x="320" y="330" width="80" height="30" as="geometry" />
        </mxCell>
        <mxCell id="2Nln8GVLDwGdub9k7DS5-13" value="Device" style="rounded=0;whiteSpace=wrap;html=1;align=center;textOpacity=50;" vertex="1" parent="2Nln8GVLDwGdub9k7DS5-1">
          <mxGeometry x="420" y="330" width="80" height="30" as="geometry" />
        </mxCell>
        <mxCell id="2Nln8GVLDwGdub9k7DS5-14" value="Session based&lt;br&gt;Authorisation" style="rounded=0;whiteSpace=wrap;html=1;align=center;fillColor=#f5f5f5;strokeColor=#666666;fontColor=#333333;textOpacity=50;" vertex="1" parent="2Nln8GVLDwGdub9k7DS5-1">
          <mxGeometry x="420" y="230" width="80" height="40" as="geometry" />
        </mxCell>
        <mxCell id="2Nln8GVLDwGdub9k7DS5-16" value="&lt;p style=&quot;line-height: 90%&quot;&gt;Auto Reviewed &amp;amp; Approved&lt;/p&gt;" style="rounded=0;whiteSpace=wrap;html=1;align=center;textOpacity=50;" vertex="1" parent="2Nln8GVLDwGdub9k7DS5-1">
          <mxGeometry x="520" y="290" width="80" height="30" as="geometry" />
        </mxCell>
        <mxCell id="2Nln8GVLDwGdub9k7DS5-17" value="Workflow Based Approval" style="rounded=0;whiteSpace=wrap;html=1;align=center;fillColor=#f5f5f5;strokeColor=#666666;fontColor=#333333;textOpacity=50;" vertex="1" parent="2Nln8GVLDwGdub9k7DS5-1">
          <mxGeometry x="520" y="230" width="80" height="40" as="geometry" />
        </mxCell>
        <mxCell id="2Nln8GVLDwGdub9k7DS5-18" value="Incompatible&lt;br&gt;Choices" style="rounded=0;whiteSpace=wrap;html=1;align=center;" vertex="1" parent="2Nln8GVLDwGdub9k7DS5-1">
          <mxGeometry x="220" y="290" width="80" height="30" as="geometry" />
        </mxCell>
        <mxCell id="2Nln8GVLDwGdub9k7DS5-19" value="Completeness" style="rounded=0;whiteSpace=wrap;html=1;align=center;" vertex="1" parent="2Nln8GVLDwGdub9k7DS5-1">
          <mxGeometry x="220" y="330" width="80" height="30" as="geometry" />
        </mxCell>
        <mxCell id="P6dEM1u8eeqiW9vupXYG-0" value="&lt;font style=&quot;font-size: 12px&quot;&gt;Diagram: Information Validation - Categories &amp;amp; Types&lt;/font&gt;" style="text;strokeColor=none;fillColor=none;html=1;fontSize=12;fontStyle=2;verticalAlign=middle;align=left;shadow=0;glass=0;comic=0;opacity=30;fontColor=#808080;" vertex="1" parent="2Nln8GVLDwGdub9k7DS5-1">
          <mxGeometry x="120" y="585" width="520" height="20" as="geometry" />
        </mxCell>
        <mxCell id="P6dEM1u8eeqiW9vupXYG-1" value="eg:Embargos" style="rounded=0;whiteSpace=wrap;html=1;align=center;fontStyle=2;fillColor=#f5f5f5;fontColor=#333333;dashed=1;textOpacity=50;" vertex="1" parent="2Nln8GVLDwGdub9k7DS5-1">
          <mxGeometry x="330" y="360" width="80" height="30" as="geometry" />
        </mxCell>
        <mxCell id="P6dEM1u8eeqiW9vupXYG-2" value="&lt;p style=&quot;line-height: 100%&quot;&gt;Custom Rules &lt;br&gt;(User, etc.)&lt;/p&gt;" style="rounded=0;whiteSpace=wrap;html=1;align=center;spacing=0;textOpacity=50;" vertex="1" parent="2Nln8GVLDwGdub9k7DS5-1">
          <mxGeometry x="420" y="370" width="80" height="30" as="geometry" />
        </mxCell>
        <mxCell id="P6dEM1u8eeqiW9vupXYG-4" value="&lt;p style=&quot;line-height: 90%&quot;&gt;Role based Reviewed &amp;amp; Approved&lt;/p&gt;" style="rounded=0;whiteSpace=wrap;html=1;align=center;textOpacity=50;" vertex="1" parent="2Nln8GVLDwGdub9k7DS5-1">
          <mxGeometry x="520" y="330" width="80" height="30" as="geometry" />
        </mxCell>
        <mxCell id="AVSeOX70nhlcXuHzXOTY-0" value="&lt;p style=&quot;line-height: 100%&quot;&gt;Tip: &lt;br&gt;there are cases (eg: international bank accounts) where it is preferable to &quot;soft&quot; validate - a process of highlighting non-conformant values and gray out the OK/Submit form button until the user has checked a &quot;I know, proceed anyway&quot; boolean message value via a checkbox.&lt;/p&gt;" style="rounded=0;whiteSpace=wrap;html=1;align=left;" vertex="1" parent="2Nln8GVLDwGdub9k7DS5-1">
          <mxGeometry x="210" y="490" width="390" height="70" as="geometry" />
        </mxCell>
        <mxCell id="AVSeOX70nhlcXuHzXOTY-2" value="Validation" style="rounded=0;whiteSpace=wrap;html=1;fontSize=12;align=center;fillColor=#f5f5f5;fontColor=#333333;" vertex="1" parent="2Nln8GVLDwGdub9k7DS5-1">
          <mxGeometry x="120" y="180" width="180" height="40" as="geometry" />
        </mxCell>
        <mxCell id="AVSeOX70nhlcXuHzXOTY-3" value="Authorisation" style="rounded=0;whiteSpace=wrap;html=1;fontSize=12;align=center;fillColor=#f5f5f5;fontColor=#333333;textOpacity=50;" vertex="1" parent="2Nln8GVLDwGdub9k7DS5-1">
          <mxGeometry x="320" y="180" width="280" height="40" as="geometry" />
        </mxCell>
        <mxCell id="WR3kZQfr93bL7Yz2Tx-j-0" value="Content&lt;br&gt;&lt;font style=&quot;font-size: 11px&quot;&gt;abusive&amp;nbsp;&lt;/font&gt;&lt;font style=&quot;font-size: 10px&quot;&gt;img/lang&lt;/font&gt;" style="rounded=0;whiteSpace=wrap;html=1;align=center;" vertex="1" parent="2Nln8GVLDwGdub9k7DS5-1">
          <mxGeometry x="120" y="490" width="80" height="30" as="geometry" />
        </mxCell>
        <mxCell id="WR3kZQfr93bL7Yz2Tx-j-1" value="eg: metadata provided" style="rounded=0;whiteSpace=wrap;html=1;align=center;dashed=1;fontColor=#333333;fontStyle=2;fillColor=#f5f5f5;textOpacity=50;" vertex="1" parent="2Nln8GVLDwGdub9k7DS5-1">
          <mxGeometry x="230" y="360" width="80" height="30" as="geometry" />
        </mxCell>
        <mxCell id="WR3kZQfr93bL7Yz2Tx-j-2" value="Content&amp;nbsp;&lt;br&gt;&lt;span style=&quot;font-size: 11px&quot;&gt;(malware.check)&lt;/span&gt;" style="rounded=0;whiteSpace=wrap;html=1;align=center;" vertex="1" parent="2Nln8GVLDwGdub9k7DS5-1">
          <mxGeometry x="120" y="530" width="80" height="30" as="geometry" />
        </mxCell>
        <mxCell id="fO56wq2T3xtzVVdBopmP-0" value="&lt;p style=&quot;line-height: 100%&quot;&gt;&lt;br&gt;Note: that Validation is not the same as Authorisation.&lt;/p&gt;" style="rounded=0;whiteSpace=wrap;html=1;align=left;" vertex="1" parent="2Nln8GVLDwGdub9k7DS5-1">
          <mxGeometry x="210" y="410" width="390" height="30" as="geometry" />
        </mxCell>
      </root>
    </mxGraphModel>
  </diagram>
</mxfile>
